<svg xmlns="http://www.w3.org/2000/svg" viewBox="0 0 64 64" width="64" height="64">
  <defs>
    <linearGradient id="bgGrad" x1="0%" y1="0%" x2="100%" y2="100%">
      <stop offset="0%" stop-color="#0284c7"/>
      <stop offset="50%" stop-color="#2563eb"/>
      <stop offset="100%" stop-color="#38bdf8"/>
    </linearGradient>
  </defs>
  <!-- Rounded Gradient Background Card -->
  <rect width="64" height="64" rx="14" fill="url(#bgGrad)" />
  
  <!-- Main 4-Point AI Sparkle Icon -->
  <path d="M 32,12 C 32,22 34,24 44,24 C 34,24 32,26 32,36 C 32,26 30,24 20,24 C 30,24 32,22 32,12 Z" fill="#ffffff" />
  
  <!-- Top Right Mini Sparkle -->
  <path d="M 44,14 C 44,17 45,18 48,18 C 45,18 44,19 44,22 C 44,19 43,18 40,18 C 43,18 44,17 44,14 Z" fill="#ffffff" />
  
  <!-- Bottom Left Mini Sparkle -->
  <path d="M 20,34 C 20,37 21,38 24,38 C 21,38 20,39 20,42 C 20,39 19,38 16,38 C 19,38 20,37 20,34 Z" fill="#ffffff" />
</svg>
